<mxfile host="65bd71144e">
    <diagram id="mxhz0sK2NCgJPXF47iWD" name="执行前">
        <mxGraphModel dx="1774" dy="803" grid="0" gridSize="10" guides="1" tooltips="1" connect="1" arrows="1" fold="1" page="1" pageScale="1" pageWidth="1169" pageHeight="1654" background="#ffffff" math="0" shadow="1">
            <root>
                <mxCell id="0"/>
                <mxCell id="1" parent="0"/>
                <mxCell id="8" style="edgeStyle=none;html=1;exitX=1;exitY=1;exitDx=0;exitDy=0;fontColor=#000000;" parent="1" source="2" edge="1">
                    <mxGeometry relative="1" as="geometry">
                        <mxPoint x="254" y="691" as="targetPoint"/>
                    </mxGeometry>
                </mxCell>
                <mxCell id="2" value="" style="rounded=0;whiteSpace=wrap;html=1;fillColor=#FFFFFF;strokeColor=#000000;" parent="1" vertex="1">
                    <mxGeometry x="47" y="229" width="210" height="470" as="geometry"/>
                </mxCell>
                <mxCell id="3" value="" style="rounded=0;whiteSpace=wrap;html=1;strokeColor=#000000;fillColor=#FFFFFF;" parent="1" vertex="1">
                    <mxGeometry x="300" y="40" width="765" height="659" as="geometry"/>
                </mxCell>
                <mxCell id="4" value="执行上下文栈（ECS）" style="text;html=1;align=center;verticalAlign=middle;resizable=0;points=[];autosize=1;strokeColor=none;fillColor=none;fontColor=#000000;" parent="1" vertex="1">
                    <mxGeometry x="85" y="10" width="140" height="30" as="geometry"/>
                </mxCell>
                <mxCell id="5" value="" style="rounded=0;whiteSpace=wrap;html=1;strokeColor=#000000;fontColor=#000000;fillColor=#FFFFFF;" parent="1" vertex="1">
                    <mxGeometry x="54" y="571" width="170" height="90" as="geometry"/>
                </mxCell>
                <mxCell id="6" value="全局执行上下文（GEC）" style="text;html=1;strokeColor=none;fillColor=none;align=center;verticalAlign=middle;whiteSpace=wrap;rounded=0;fontColor=#000000;" parent="1" vertex="1">
                    <mxGeometry x="54" y="531" width="145" height="30" as="geometry"/>
                </mxCell>
                <mxCell id="7" value="VO:GO&lt;br&gt;scope chain&lt;br&gt;this" style="rounded=0;whiteSpace=wrap;html=1;strokeColor=#0e8088;fillColor=#b0e3e6;fontColor=#000000;" parent="1" vertex="1">
                    <mxGeometry x="66.5" y="581" width="145" height="50" as="geometry"/>
                </mxCell>
                <mxCell id="11" value="Function Object(createAdder)&#10;0xa00&#10;" style="swimlane;strokeColor=#000000;fontColor=#000000;fillColor=#FFFFFF;startSize=50;" parent="1" vertex="1">
                    <mxGeometry x="550" y="60" width="204" height="200" as="geometry"/>
                </mxCell>
                <mxCell id="12" value="name&amp;nbsp;&lt;br&gt;length&lt;br&gt;......&lt;br&gt;&lt;br&gt;[[scopes]]: 0xg00" style="text;html=1;strokeColor=none;fillColor=none;align=left;verticalAlign=top;whiteSpace=wrap;rounded=0;fontColor=#000000;" parent="11" vertex="1">
                    <mxGeometry x="16" y="59" width="165" height="130" as="geometry"/>
                </mxCell>
                <mxCell id="16" value="" style="endArrow=classic;html=1;fontColor=#000000;entryX=0;entryY=0.096;entryDx=0;entryDy=0;strokeColor=#000000;entryPerimeter=0;" edge="1" parent="11" target="14">
                    <mxGeometry width="50" height="50" relative="1" as="geometry">
                        <mxPoint x="114" y="129" as="sourcePoint"/>
                        <mxPoint x="222.18399999999997" y="-4" as="targetPoint"/>
                        <Array as="points">
                            <mxPoint x="114" y="132"/>
                        </Array>
                    </mxGeometry>
                </mxCell>
                <mxCell id="13" value="" style="endArrow=classic;html=1;fontColor=#000000;entryX=-0.004;entryY=0.22;entryDx=0;entryDy=0;strokeColor=#000000;entryPerimeter=0;" parent="1" target="11" edge="1">
                    <mxGeometry width="50" height="50" relative="1" as="geometry">
                        <mxPoint x="441" y="237" as="sourcePoint"/>
                        <mxPoint x="514" y="103" as="targetPoint"/>
                        <Array as="points">
                            <mxPoint x="441" y="240"/>
                        </Array>
                    </mxGeometry>
                </mxCell>
                <mxCell id="_QweY8apQex131UrhFpi-13" value="Global Object(window)&#10;0x100" style="swimlane;strokeColor=#000000;fontColor=#000000;fillColor=#FFFFFF;startSize=34;" parent="1" vertex="1">
                    <mxGeometry x="314" y="60" width="204" height="231" as="geometry"/>
                </mxCell>
                <mxCell id="_QweY8apQex131UrhFpi-14" value="&lt;font style=&quot;font-size: 13px;&quot;&gt;Date&lt;br&gt;Array&lt;br&gt;String&lt;br&gt;Number&lt;br&gt;setTimeout&lt;br&gt;setInterval等&lt;br&gt;window&lt;/font&gt;&lt;br&gt;&lt;br&gt;&lt;b&gt;自己定义的变量:&lt;br&gt;&lt;/b&gt;createAdder:0xa00&lt;br&gt;adder5: 0xb00&lt;br&gt;adder8:0xc00" style="text;html=1;strokeColor=none;fillColor=none;align=left;verticalAlign=top;whiteSpace=wrap;rounded=0;fontColor=#000000;" parent="_QweY8apQex131UrhFpi-13" vertex="1">
                    <mxGeometry x="15" y="30" width="174" height="199" as="geometry"/>
                </mxCell>
                <mxCell id="33" value="" style="endArrow=classic;html=1;fontColor=#000000;strokeColor=#000000;" edge="1" parent="_QweY8apQex131UrhFpi-13">
                    <mxGeometry width="50" height="50" relative="1" as="geometry">
                        <mxPoint x="96.82" y="192" as="sourcePoint"/>
                        <mxPoint x="280" y="258" as="targetPoint"/>
                        <Array as="points">
                            <mxPoint x="96.82" y="195"/>
                            <mxPoint x="280" y="255"/>
                        </Array>
                    </mxGeometry>
                </mxCell>
                <mxCell id="wB8Ox-92wr-dbIK4T_Y6-13" value="堆内存" style="text;html=1;align=center;verticalAlign=middle;resizable=0;points=[];autosize=1;strokeColor=none;fillColor=none;fontColor=#000000;" parent="1" vertex="1">
                    <mxGeometry x="519" y="11" width="54" height="26" as="geometry"/>
                </mxCell>
                <mxCell id="14" value="scope chain&#10;0xg00" style="swimlane;strokeColor=#000000;fontColor=#000000;fillColor=#FFFFFF;startSize=50;" vertex="1" parent="1">
                    <mxGeometry x="794" y="60" width="204" height="200" as="geometry"/>
                </mxCell>
                <mxCell id="15" value="0: GO(0x100)" style="text;html=1;strokeColor=none;fillColor=none;align=left;verticalAlign=top;whiteSpace=wrap;rounded=0;fontColor=#000000;" vertex="1" parent="14">
                    <mxGeometry x="16" y="59" width="165" height="130" as="geometry"/>
                </mxCell>
                <mxCell id="17" value="" style="endArrow=classic;html=1;fontColor=#000000;entryX=1.008;entryY=0.071;entryDx=0;entryDy=0;strokeColor=#000000;entryPerimeter=0;" edge="1" parent="1" target="_QweY8apQex131UrhFpi-13">
                    <mxGeometry width="50" height="50" relative="1" as="geometry">
                        <mxPoint x="801" y="131" as="sourcePoint"/>
                        <mxPoint x="909.184" y="-2" as="targetPoint"/>
                        <Array as="points">
                            <mxPoint x="801" y="134"/>
                        </Array>
                    </mxGeometry>
                </mxCell>
                <mxCell id="18" value="Global Object(window)&#10;0x100" style="swimlane;strokeColor=#000000;fontColor=#000000;fillColor=#FFFFFF;startSize=34;" vertex="1" parent="1">
                    <mxGeometry x="314" y="317" width="205" height="99" as="geometry"/>
                </mxCell>
                <mxCell id="19" value="&lt;span style=&quot;font-size: 13px;&quot;&gt;arguments: 值&lt;br&gt;count: 5&lt;br&gt;adder: 0xb00&lt;br&gt;&lt;/span&gt;" style="text;html=1;strokeColor=none;fillColor=none;align=left;verticalAlign=top;whiteSpace=wrap;rounded=0;fontColor=#000000;" vertex="1" parent="18">
                    <mxGeometry x="13" y="43" width="178" height="70" as="geometry"/>
                </mxCell>
                <mxCell id="31" value="" style="endArrow=classic;html=1;fontColor=#000000;entryX=-0.006;entryY=0.172;entryDx=0;entryDy=0;strokeColor=#000000;entryPerimeter=0;" edge="1" parent="18" target="26">
                    <mxGeometry width="50" height="50" relative="1" as="geometry">
                        <mxPoint x="94" y="87.19999999999999" as="sourcePoint"/>
                        <mxPoint x="223.38800000000015" y="-16.000000000000057" as="targetPoint"/>
                        <Array as="points">
                            <mxPoint x="94" y="90.19999999999999"/>
                        </Array>
                    </mxGeometry>
                </mxCell>
                <mxCell id="26" value="Function Object(adder)&#10;0xb00&#10;" style="swimlane;strokeColor=#000000;fontColor=#000000;fillColor=#FFFFFF;startSize=50;" vertex="1" parent="1">
                    <mxGeometry x="554" y="315" width="199" height="163" as="geometry"/>
                </mxCell>
                <mxCell id="27" value="name&amp;nbsp;&lt;br&gt;length&lt;br&gt;......&lt;br&gt;&lt;br&gt;[[scopes]]: 0xh00" style="text;html=1;strokeColor=none;fillColor=none;align=left;verticalAlign=top;whiteSpace=wrap;rounded=0;fontColor=#000000;" vertex="1" parent="26">
                    <mxGeometry x="16" y="59" width="159" height="106" as="geometry"/>
                </mxCell>
                <mxCell id="28" value="" style="endArrow=classic;html=1;fontColor=#000000;entryX=-0.003;entryY=0.129;entryDx=0;entryDy=0;strokeColor=#000000;entryPerimeter=0;" edge="1" parent="26" target="29">
                    <mxGeometry width="50" height="50" relative="1" as="geometry">
                        <mxPoint x="114" y="129" as="sourcePoint"/>
                        <mxPoint x="222.18399999999997" y="-4" as="targetPoint"/>
                        <Array as="points">
                            <mxPoint x="114" y="132"/>
                        </Array>
                    </mxGeometry>
                </mxCell>
                <mxCell id="32" value="" style="endArrow=classic;html=1;fontColor=#000000;strokeColor=#000000;" edge="1" parent="26">
                    <mxGeometry width="50" height="50" relative="1" as="geometry">
                        <mxPoint x="257" y="72.59999999999991" as="sourcePoint"/>
                        <mxPoint x="-34" y="15" as="targetPoint"/>
                        <Array as="points">
                            <mxPoint x="257" y="75.60000000000002"/>
                        </Array>
                    </mxGeometry>
                </mxCell>
                <mxCell id="29" value="scope chain&#10;0xh00" style="swimlane;strokeColor=#000000;fontColor=#000000;fillColor=#FFFFFF;startSize=50;" vertex="1" parent="1">
                    <mxGeometry x="798" y="315" width="198" height="160" as="geometry"/>
                </mxCell>
                <mxCell id="30" value="0:AO(0x100)&lt;br&gt;1: GO(0x100)" style="text;html=1;strokeColor=none;fillColor=none;align=left;verticalAlign=top;whiteSpace=wrap;rounded=0;fontColor=#000000;" vertex="1" parent="29">
                    <mxGeometry x="16" y="59" width="156" height="83" as="geometry"/>
                </mxCell>
                <mxCell id="34" value="Global Object(window)&#10;0x200" style="swimlane;strokeColor=#000000;fontColor=#000000;fillColor=#FFFFFF;startSize=34;" vertex="1" parent="1">
                    <mxGeometry x="315" y="529" width="205" height="99" as="geometry"/>
                </mxCell>
                <mxCell id="35" value="&lt;span style=&quot;font-size: 13px;&quot;&gt;arguments: 值&lt;br&gt;count: 8&lt;br&gt;adder: 0xc00&lt;br&gt;&lt;/span&gt;" style="text;html=1;strokeColor=none;fillColor=none;align=left;verticalAlign=top;whiteSpace=wrap;rounded=0;fontColor=#000000;" vertex="1" parent="34">
                    <mxGeometry x="13" y="43" width="178" height="70" as="geometry"/>
                </mxCell>
                <mxCell id="36" value="" style="endArrow=classic;html=1;fontColor=#000000;entryX=0;entryY=0.25;entryDx=0;entryDy=0;strokeColor=#000000;" edge="1" parent="34" target="37">
                    <mxGeometry width="50" height="50" relative="1" as="geometry">
                        <mxPoint x="94" y="87.19999999999999" as="sourcePoint"/>
                        <mxPoint x="223.38800000000015" y="-16.000000000000057" as="targetPoint"/>
                        <Array as="points">
                            <mxPoint x="94" y="90.19999999999999"/>
                        </Array>
                    </mxGeometry>
                </mxCell>
                <mxCell id="37" value="Function Object(adder)&#10;0xc00&#10;" style="swimlane;strokeColor=#000000;fontColor=#000000;fillColor=#FFFFFF;startSize=50;" vertex="1" parent="1">
                    <mxGeometry x="555" y="529" width="199" height="163" as="geometry"/>
                </mxCell>
                <mxCell id="38" value="name&amp;nbsp;&lt;br&gt;length&lt;br&gt;......&lt;br&gt;&lt;br&gt;[[scopes]]: 0xj00" style="text;html=1;strokeColor=none;fillColor=none;align=left;verticalAlign=top;whiteSpace=wrap;rounded=0;fontColor=#000000;" vertex="1" parent="37">
                    <mxGeometry x="16" y="59" width="159" height="106" as="geometry"/>
                </mxCell>
                <mxCell id="39" value="" style="endArrow=classic;html=1;fontColor=#000000;strokeColor=#000000;" edge="1" parent="37">
                    <mxGeometry width="50" height="50" relative="1" as="geometry">
                        <mxPoint x="114" y="129" as="sourcePoint"/>
                        <mxPoint x="242" y="20" as="targetPoint"/>
                        <Array as="points">
                            <mxPoint x="114" y="132"/>
                        </Array>
                    </mxGeometry>
                </mxCell>
                <mxCell id="40" value="" style="endArrow=classic;html=1;fontColor=#000000;strokeColor=#000000;" edge="1" parent="37">
                    <mxGeometry width="50" height="50" relative="1" as="geometry">
                        <mxPoint x="257" y="67" as="sourcePoint"/>
                        <mxPoint x="-34" y="15" as="targetPoint"/>
                        <Array as="points"/>
                    </mxGeometry>
                </mxCell>
                <mxCell id="41" value="scope chain&#10;0xj00" style="swimlane;strokeColor=#000000;fontColor=#000000;fillColor=#FFFFFF;startSize=50;" vertex="1" parent="1">
                    <mxGeometry x="797" y="526" width="198" height="160" as="geometry"/>
                </mxCell>
                <mxCell id="42" value="0:AO(0x100)&lt;br&gt;1: GO(0x100)" style="text;html=1;strokeColor=none;fillColor=none;align=left;verticalAlign=top;whiteSpace=wrap;rounded=0;fontColor=#000000;" vertex="1" parent="41">
                    <mxGeometry x="16" y="59" width="156" height="83" as="geometry"/>
                </mxCell>
                <mxCell id="43" value="" style="endArrow=classic;html=1;fontColor=#000000;strokeColor=#000000;" edge="1" parent="1" target="37">
                    <mxGeometry width="50" height="50" relative="1" as="geometry">
                        <mxPoint x="410" y="267" as="sourcePoint"/>
                        <mxPoint x="537.1839999999997" y="145" as="targetPoint"/>
                        <Array as="points">
                            <mxPoint x="410" y="273"/>
                        </Array>
                    </mxGeometry>
                </mxCell>
            </root>
        </mxGraphModel>
    </diagram>
</mxfile>